<svg width="24" height="24" viewBox="0 0 24 24" fill="none" xmlns="http://www.w3.org/2000/svg">
<path fill-rule="evenodd" clip-rule="evenodd" d="M3.25 3C3.25 2.0335 4.0335 1.25 5 1.25H15.5C15.7126 1.25 15.9152 1.34024 16.0575 1.49828L20.5575 6.49828C20.6814 6.63599 20.75 6.81472 20.75 7V11.5C20.75 11.9142 20.4142 12.25 20 12.25C19.5858 12.25 19.25 11.9142 19.25 11.5V7.2878L15.166 2.75H5C4.86193 2.75 4.75 2.86193 4.75 3V21C4.75 21.1381 4.86192 21.25 5 21.25H11C11.4142 21.25 11.75 21.5858 11.75 22C11.75 22.4142 11.4142 22.75 11 22.75H5C4.03351 22.75 3.25 21.9665 3.25 21V3Z" fill="white"/>
<path fill-rule="evenodd" clip-rule="evenodd" d="M18.4697 14.4697C18.7626 14.1768 19.2374 14.1768 19.5303 14.4697L21.5303 16.4697C21.8232 16.7626 21.8232 17.2374 21.5303 17.5303L16.5303 22.5303C16.3897 22.671 16.1989 22.75 16 22.75H14C13.5858 22.75 13.25 22.4142 13.25 22V20C13.25 19.8011 13.329 19.6103 13.4697 19.4697L18.4697 14.4697ZM14.75 20.3107V21.25H15.6893L19.9393 17L19 16.0607L14.75 20.3107Z" fill="white"/>
<path fill-rule="evenodd" clip-rule="evenodd" d="M15 1.25C15.4142 1.25 15.75 1.58579 15.75 2V6.25H20C20.4142 6.25 20.75 6.58579 20.75 7C20.75 7.41421 20.4142 7.75 20 7.75H15C14.5858 7.75 14.25 7.41421 14.25 7V2C14.25 1.58579 14.5858 1.25 15 1.25Z" fill="white"/>
</svg>
