<svg width="24" height="24" viewBox="0 0 24 24" fill="none" xmlns="http://www.w3.org/2000/svg">
<path fill-rule="evenodd" clip-rule="evenodd" d="M5 2.75C4.86193 2.75 4.75 2.86193 4.75 3V21C4.75 21.1381 4.86193 21.25 5 21.25H19C19.1381 21.25 19.25 21.1381 19.25 21V3C19.25 2.86193 19.1381 2.75 19 2.75H5ZM3.25 3C3.25 2.0335 4.0335 1.25 5 1.25H19C19.9665 1.25 20.75 2.0335 20.75 3V21C20.75 21.9665 19.9665 22.75 19 22.75H5C4.0335 22.75 3.25 21.9665 3.25 21V3Z" fill="white"/>
<path fill-rule="evenodd" clip-rule="evenodd" d="M9.75 7C9.75 6.58579 10.0858 6.25 10.5 6.25H16.5C16.9142 6.25 17.25 6.58579 17.25 7C17.25 7.41421 16.9142 7.75 16.5 7.75H10.5C10.0858 7.75 9.75 7.41421 9.75 7Z" fill="white"/>
<path fill-rule="evenodd" clip-rule="evenodd" d="M9.75 12C9.75 11.5858 10.0858 11.25 10.5 11.25H16.5C16.9142 11.25 17.25 11.5858 17.25 12C17.25 12.4142 16.9142 12.75 16.5 12.75H10.5C10.0858 12.75 9.75 12.4142 9.75 12Z" fill="white"/>
<path fill-rule="evenodd" clip-rule="evenodd" d="M9.75 17C9.75 16.5858 10.0858 16.25 10.5 16.25H16.5C16.9142 16.25 17.25 16.5858 17.25 17C17.25 17.4142 16.9142 17.75 16.5 17.75H10.5C10.0858 17.75 9.75 17.4142 9.75 17Z" fill="white"/>
<path fill-rule="evenodd" clip-rule="evenodd" d="M7.5 8C8.0523 8 8.5 7.5523 8.5 7C8.5 6.4477 8.0523 6 7.5 6C6.9477 6 6.5 6.4477 6.5 7C6.5 7.5523 6.9477 8 7.5 8Z" fill="white"/>
<path fill-rule="evenodd" clip-rule="evenodd" d="M7.5 13C8.0523 13 8.5 12.5523 8.5 12C8.5 11.4477 8.0523 11 7.5 11C6.9477 11 6.5 11.4477 6.5 12C6.5 12.5523 6.9477 13 7.5 13Z" fill="white"/>
<path fill-rule="evenodd" clip-rule="evenodd" d="M7.5 18C8.0523 18 8.5 17.5523 8.5 17C8.5 16.4477 8.0523 16 7.5 16C6.9477 16 6.5 16.4477 6.5 17C6.5 17.5523 6.9477 18 7.5 18Z" fill="white"/>
</svg>
