<svg width="66" height="66" viewBox="0 0 66 66" fill="none" xmlns="http://www.w3.org/2000/svg">
<circle cx="33" cy="33" r="33" fill="#7A98B8"/>
<path fill-rule="evenodd" clip-rule="evenodd" d="M21.3333 21C21.3333 19.7113 22.3779 18.6667 23.6666 18.6667H37.6666C37.9501 18.6667 38.2202 18.787 38.4099 18.9977L44.4099 25.6644C44.5751 25.848 44.6666 26.0863 44.6666 26.3333V32.3333C44.6666 32.8856 44.2189 33.3333 43.6666 33.3333C43.1143 33.3333 42.6666 32.8856 42.6666 32.3333V26.7171L37.2212 20.6667H23.6666C23.4825 20.6667 23.3333 20.8159 23.3333 21V45C23.3333 45.1841 23.4825 45.3333 23.6666 45.3333H31.6666C32.2189 45.3333 32.6666 45.781 32.6666 46.3333C32.6666 46.8856 32.2189 47.3333 31.6666 47.3333H23.6666C22.3779 47.3333 21.3333 46.2887 21.3333 45V21Z" fill="white"/>
<path fill-rule="evenodd" clip-rule="evenodd" d="M41.6263 36.2929C42.0168 35.9024 42.65 35.9024 43.0405 36.2929L45.7072 38.9596C46.0977 39.3501 46.0977 39.9832 45.7072 40.3738L39.0405 47.0404C38.853 47.228 38.5986 47.3333 38.3334 47.3333H35.6667C35.1145 47.3333 34.6667 46.8856 34.6667 46.3333V43.6667C34.6667 43.4015 34.7721 43.1471 34.9596 42.9596L41.6263 36.2929ZM36.6667 44.0809V45.3333H37.9192L43.5859 39.6667L42.3334 38.4142L36.6667 44.0809Z" fill="white"/>
<path fill-rule="evenodd" clip-rule="evenodd" d="M37 18.6667C37.5523 18.6667 38 19.1144 38 19.6667V25.3333H43.6667C44.219 25.3333 44.6667 25.781 44.6667 26.3333C44.6667 26.8856 44.219 27.3333 43.6667 27.3333H37C36.4477 27.3333 36 26.8856 36 26.3333V19.6667C36 19.1144 36.4477 18.6667 37 18.6667Z" fill="white"/>
</svg>
