<svg width="66" height="66" viewBox="0 0 66 66" fill="none" xmlns="http://www.w3.org/2000/svg">
<circle cx="33" cy="33" r="33" fill="#7A98B8"/>
<path fill-rule="evenodd" clip-rule="evenodd" d="M38.3334 20.6667C34.4674 20.6667 31.3334 23.8007 31.3334 27.6667C31.3334 28.8507 31.6266 29.9633 32.1434 30.9388C32.349 31.3268 32.2774 31.8036 31.9669 32.1141L21.081 43L23.0001 44.9191L33.886 34.0332C34.1966 33.7227 34.6733 33.6511 35.0613 33.8567C36.0368 34.3735 37.1494 34.6667 38.3334 34.6667C42.1994 34.6667 45.3334 31.5327 45.3334 27.6667C45.3334 26.9814 45.2352 26.3201 45.0523 25.6954L41.0405 29.7071C40.65 30.0977 40.0168 30.0977 39.6263 29.7071L36.293 26.3738C35.9025 25.9833 35.9025 25.3501 36.293 24.9596L40.3047 20.9478C39.68 20.7649 39.0187 20.6667 38.3334 20.6667ZM29.3334 27.6667C29.3334 22.6961 33.3629 18.6667 38.3334 18.6667C39.8517 18.6667 41.285 19.0435 42.5419 19.7095C42.8222 19.858 43.0155 20.1308 43.0626 20.4446C43.1097 20.7583 43.0051 21.0758 42.7808 21.3002L38.4143 25.6667L40.3334 27.5858L44.6999 23.2193C44.9243 22.995 45.2418 22.8904 45.5556 22.9375C45.8693 22.9846 46.1421 23.1779 46.2907 23.4582C46.9566 24.7151 47.3334 26.1484 47.3334 27.6667C47.3334 32.6372 43.304 36.6667 38.3334 36.6667C37.081 36.6667 35.8864 36.4103 34.801 35.9467L23.7072 47.0405C23.3167 47.431 22.6835 47.431 22.293 47.0405L18.9596 43.7071C18.5691 43.3166 18.5691 42.6834 18.9596 42.2929L30.0534 31.1991C29.5898 30.1137 29.3334 28.9191 29.3334 27.6667Z" fill="white"/>
</svg>
