<svg width="66" height="66" viewBox="0 0 66 66" fill="none" xmlns="http://www.w3.org/2000/svg">
<circle cx="33" cy="33" r="33" fill="#7A98B8"/>
<path fill-rule="evenodd" clip-rule="evenodd" d="M23.6666 20.6667C23.4825 20.6667 23.3333 20.8159 23.3333 21V45C23.3333 45.1841 23.4825 45.3334 23.6666 45.3334H42.3333C42.5173 45.3334 42.6666 45.1841 42.6666 45V21C42.6666 20.8159 42.5173 20.6667 42.3333 20.6667H23.6666ZM21.3333 21C21.3333 19.7114 22.3779 18.6667 23.6666 18.6667H42.3333C43.6219 18.6667 44.6666 19.7114 44.6666 21V45C44.6666 46.2887 43.6219 47.3334 42.3333 47.3334H23.6666C22.3779 47.3334 21.3333 46.2887 21.3333 45V21Z" fill="white"/>
<path fill-rule="evenodd" clip-rule="evenodd" d="M30 26.3333C30 25.781 30.4477 25.3333 31 25.3333H39C39.5523 25.3333 40 25.781 40 26.3333C40 26.8856 39.5523 27.3333 39 27.3333H31C30.4477 27.3333 30 26.8856 30 26.3333Z" fill="white"/>
<path fill-rule="evenodd" clip-rule="evenodd" d="M30 33C30 32.4477 30.4477 32 31 32H39C39.5523 32 40 32.4477 40 33C40 33.5523 39.5523 34 39 34H31C30.4477 34 30 33.5523 30 33Z" fill="white"/>
<path fill-rule="evenodd" clip-rule="evenodd" d="M30 39.6667C30 39.1144 30.4477 38.6667 31 38.6667H39C39.5523 38.6667 40 39.1144 40 39.6667C40 40.219 39.5523 40.6667 39 40.6667H31C30.4477 40.6667 30 40.219 30 39.6667Z" fill="white"/>
<path fill-rule="evenodd" clip-rule="evenodd" d="M27.0001 27.6667C27.7365 27.6667 28.3334 27.0697 28.3334 26.3333C28.3334 25.5969 27.7365 25 27.0001 25C26.2637 25 25.6667 25.5969 25.6667 26.3333C25.6667 27.0697 26.2637 27.6667 27.0001 27.6667Z" fill="white"/>
<path fill-rule="evenodd" clip-rule="evenodd" d="M27.0001 34.3334C27.7365 34.3334 28.3334 33.7364 28.3334 33C28.3334 32.2636 27.7365 31.6667 27.0001 31.6667C26.2637 31.6667 25.6667 32.2636 25.6667 33C25.6667 33.7364 26.2637 34.3334 27.0001 34.3334Z" fill="white"/>
<path fill-rule="evenodd" clip-rule="evenodd" d="M27.0001 41C27.7365 41 28.3334 40.403 28.3334 39.6666C28.3334 38.9302 27.7365 38.3333 27.0001 38.3333C26.2637 38.3333 25.6667 38.9302 25.6667 39.6666C25.6667 40.403 26.2637 41 27.0001 41Z" fill="white"/>
</svg>
